<svg id="Layer_1" data-name="Layer 1" xmlns="http://www.w3.org/2000/svg" viewBox="0 0 500 500"><defs><style>.cls-1{fill:#0a6777;}.cls-2{fill:#26a8c1;}</style></defs><title>ManagerBox500</title><path class="cls-1" d="M85.23,475.89A6.35,6.35,0,0,1,83,477a10.39,10.39,0,0,1-3.14.43,11.14,11.14,0,0,1-3.94-.59,3.17,3.17,0,0,1-2-2.05q-1.85-5.82-3-9.43T69,459.08H68.69q-0.2,3.91-.3,7.12t-0.13,6.25q0,3-.13,6.16t-0.3,6.88a11.87,11.87,0,0,1-2.25.56,16.9,16.9,0,0,1-2.78.23,9.21,9.21,0,0,1-4.53-.93A3.55,3.55,0,0,1,56.64,482l1.92-33.76a6.34,6.34,0,0,1,2.32-1.85,10.47,10.47,0,0,1,5-1,11.49,11.49,0,0,1,5.49,1.09A6.46,6.46,0,0,1,74.31,450q0.59,1.59,1.29,3.64T77,457.89q0.7,2.18,1.36,4.33l1.19,3.87h0.33q1.59-5.56,3.18-10.76t2.91-8.7a10.61,10.61,0,0,1,2.55-.89,15.28,15.28,0,0,1,3.47-.36,12.55,12.55,0,0,1,5.29,1,3.81,3.81,0,0,1,2.38,2.75q0.26,1.33.56,4.07t0.63,6.19q0.33,3.44.66,7.28t0.63,7.38q0.3,3.54.5,6.49T102.9,485a8.65,8.65,0,0,1-2.35,1,13.69,13.69,0,0,1-3.14.3,9.42,9.42,0,0,1-4.24-.86A3.64,3.64,0,0,1,91.32,482q-0.4-7.21-.5-13t-0.3-9.66H90.2q-0.66,2.58-1.92,6.49T85.23,475.89Z"/><path class="cls-1" d="M122.63,452.59a27.21,27.21,0,0,1,6.52.73,14.59,14.59,0,0,1,5,2.22,10,10,0,0,1,3.21,3.77,12.08,12.08,0,0,1,1.12,5.39v14.83a4.11,4.11,0,0,1-1,2.81,9.57,9.57,0,0,1-2.28,1.89q-4.3,2.58-12.11,2.58a27.69,27.69,0,0,1-6.32-.66,14.93,14.93,0,0,1-4.83-2,9.1,9.1,0,0,1-3.11-3.38A10,10,0,0,1,107.8,476a9,9,0,0,1,2.71-7q2.71-2.45,8.41-3l8.67-.93v-0.46a2.84,2.84,0,0,0-1.69-2.75A11.36,11.36,0,0,0,121,461a22.53,22.53,0,0,0-4.9.53,26.13,26.13,0,0,0-4.3,1.32,4.58,4.58,0,0,1-1.46-1.82,5.76,5.76,0,0,1-.6-2.55,4.25,4.25,0,0,1,.83-2.75,6.41,6.41,0,0,1,2.55-1.75,20,20,0,0,1,4.53-1.06A39.41,39.41,0,0,1,122.63,452.59Zm0.53,26a14.75,14.75,0,0,0,2.48-.23,6.06,6.06,0,0,0,2-.63v-5.3l-4.76.4a7.35,7.35,0,0,0-3,.79,2.14,2.14,0,0,0-1.19,2,2.63,2.63,0,0,0,1,2.15A5.61,5.61,0,0,0,123.16,478.6Z"/><path class="cls-1" d="M165.78,465.37a3.69,3.69,0,0,0-1.16-3,4.78,4.78,0,0,0-3.14-1,10.49,10.49,0,0,0-2.61.33,6.62,6.62,0,0,0-2.22,1v23a15.38,15.38,0,0,1-2.08.4,21.17,21.17,0,0,1-2.95.2,15.46,15.46,0,0,1-2.61-.2,4.44,4.44,0,0,1-2-.79,3.8,3.8,0,0,1-1.22-1.62,7,7,0,0,1-.43-2.68V461.13a5.1,5.1,0,0,1,.76-2.91,8,8,0,0,1,2.08-2.05,19,19,0,0,1,5.66-2.58,27.09,27.09,0,0,1,7.58-1q7.48,0,11.52,3.28a11.07,11.07,0,0,1,4,9.1v20.72a15.38,15.38,0,0,1-2.08.4,21.17,21.17,0,0,1-2.95.2,15.48,15.48,0,0,1-2.61-.2,4.44,4.44,0,0,1-2-.79,3.8,3.8,0,0,1-1.22-1.62,7,7,0,0,1-.43-2.68V465.37Z"/><path class="cls-1" d="M197.22,452.59a27.21,27.21,0,0,1,6.52.73,14.59,14.59,0,0,1,5,2.22,10,10,0,0,1,3.21,3.77,12.08,12.08,0,0,1,1.12,5.39v14.83a4.11,4.11,0,0,1-1,2.81,9.57,9.57,0,0,1-2.28,1.89q-4.3,2.58-12.11,2.58a27.69,27.69,0,0,1-6.32-.66,14.93,14.93,0,0,1-4.83-2,9.1,9.1,0,0,1-3.11-3.38,10,10,0,0,1-1.09-4.76,9,9,0,0,1,2.71-7q2.71-2.45,8.41-3l8.67-.93v-0.46a2.84,2.84,0,0,0-1.69-2.75,11.36,11.36,0,0,0-4.86-.83,22.53,22.53,0,0,0-4.9.53,26.13,26.13,0,0,0-4.3,1.32A4.58,4.58,0,0,1,185,461a5.76,5.76,0,0,1-.6-2.55,4.25,4.25,0,0,1,.83-2.75,6.41,6.41,0,0,1,2.55-1.75,20,20,0,0,1,4.53-1.06A39.41,39.41,0,0,1,197.22,452.59Zm0.53,26a14.75,14.75,0,0,0,2.48-.23,6.06,6.06,0,0,0,2-.63v-5.3l-4.76.4a7.35,7.35,0,0,0-3,.79,2.14,2.14,0,0,0-1.19,2,2.63,2.63,0,0,0,1,2.15A5.61,5.61,0,0,0,197.75,478.6Z"/><path class="cls-1" d="M235.67,452.59a23,23,0,0,1,6.85,1,18.07,18.07,0,0,1,5.19,2.48,8.06,8.06,0,0,1,2.08,2.05,5.1,5.1,0,0,1,.76,2.91v23.16a13,13,0,0,1-1.32,6.06,12.2,12.2,0,0,1-3.61,4.24,15.38,15.38,0,0,1-5.36,2.48,26.26,26.26,0,0,1-6.59.79,22.61,22.61,0,0,1-9.46-1.62,5.46,5.46,0,0,1-3.44-5.26,5.52,5.52,0,0,1,.63-2.68,5.31,5.31,0,0,1,1.42-1.75,22.28,22.28,0,0,0,4.34,1.79,17.24,17.24,0,0,0,5,.73,11.62,11.62,0,0,0,5.69-1.19A4.07,4.07,0,0,0,240,483.9v-1.06a16.43,16.43,0,0,1-6.62,1.19,17.76,17.76,0,0,1-5.66-.89,12.63,12.63,0,0,1-4.7-2.78,13.62,13.62,0,0,1-3.24-4.86,18.57,18.57,0,0,1-1.22-7.08,17.54,17.54,0,0,1,1.29-7,13.37,13.37,0,0,1,3.57-4.93,15,15,0,0,1,5.43-2.91A23.39,23.39,0,0,1,235.67,452.59Zm4.1,9.6a6.68,6.68,0,0,0-1.36-.53,7.93,7.93,0,0,0-2.22-.26,6.18,6.18,0,0,0-4.86,1.82,7.56,7.56,0,0,0-1.62,5.2q0,3.84,1.62,5.53a5.49,5.49,0,0,0,4.14,1.69,6.75,6.75,0,0,0,4.3-1.26V462.19Z"/><path class="cls-1" d="M274.52,486.81a23.2,23.2,0,0,1-7.25-1.09,16.4,16.4,0,0,1-5.82-3.28,15.16,15.16,0,0,1-3.9-5.49,19.47,19.47,0,0,1-1.42-7.74,18.1,18.1,0,0,1,1.42-7.51,14.53,14.53,0,0,1,9-8.14,19.75,19.75,0,0,1,6.09-1,18.39,18.39,0,0,1,6.39,1.06,15.37,15.37,0,0,1,5,2.91,13,13,0,0,1,3.24,4.43,13.6,13.6,0,0,1,1.16,5.63,4.52,4.52,0,0,1-1.26,3.44,6.28,6.28,0,0,1-3.51,1.52L267.31,474a5.5,5.5,0,0,0,3,3.28,11.68,11.68,0,0,0,5.16,1.09,18.45,18.45,0,0,0,5.13-.69,16.29,16.29,0,0,0,3.94-1.62,5.57,5.57,0,0,1,1.79,1.85,4.86,4.86,0,0,1-2.05,6.95,14.73,14.73,0,0,1-4.76,1.52A33.62,33.62,0,0,1,274.52,486.81Zm-1.85-26a6.55,6.55,0,0,0-2.75.53,5.54,5.54,0,0,0-1.89,1.36,5.6,5.6,0,0,0-1.09,1.85,7.57,7.57,0,0,0-.43,2.08l11.32-1.85a5,5,0,0,0-1.46-2.65A4.88,4.88,0,0,0,272.67,460.8Z"/><path class="cls-1" d="M305.1,485.68a15.38,15.38,0,0,1-2.08.4,21.17,21.17,0,0,1-2.95.2,15.46,15.46,0,0,1-2.61-.2,4.44,4.44,0,0,1-2-.79,3.8,3.8,0,0,1-1.22-1.62,7,7,0,0,1-.43-2.68V461.13a5.64,5.64,0,0,1,.56-2.61,6.12,6.12,0,0,1,1.62-2,11.68,11.68,0,0,1,2.61-1.56,27,27,0,0,1,3.34-1.22,28.31,28.31,0,0,1,3.71-.83,25,25,0,0,1,3.84-.3,9,9,0,0,1,5,1.22,4.44,4.44,0,0,1,1.85,4,6.38,6.38,0,0,1-.26,1.82,8.32,8.32,0,0,1-.66,1.62q-1.39,0-2.85.13t-2.85.4q-1.39.27-2.61,0.56a11.46,11.46,0,0,0-2.08.7v22.57Z"/><path class="cls-1" d="M350.7,486.81q-1.13,0-2.65-.07t-3.14-.26q-1.62-.2-3.21-0.5a15.47,15.47,0,0,1-2.91-.83q-3.64-1.39-3.64-4.83V449.42a2.91,2.91,0,0,1,.76-2.15A5.44,5.44,0,0,1,338,446a25.28,25.28,0,0,1,5.63-1.16,64.87,64.87,0,0,1,6.95-.36q8.47,0,13,2.85t4.57,8.8a8,8,0,0,1-1.72,5.13,9.83,9.83,0,0,1-4.63,3.14,11.48,11.48,0,0,1,5.53,3.38,8.83,8.83,0,0,1,2.22,6.16q0,6.55-4.86,9.7T350.7,486.81Zm-4.3-25.48h4.83a6.5,6.5,0,0,0,4.14-1.06,3.79,3.79,0,0,0,1.29-3.11,3.32,3.32,0,0,0-1.49-2.85,7.73,7.73,0,0,0-4.47-1.06q-1,0-2.28.07a17.16,17.16,0,0,0-2,.2v7.81Zm0,16.15a11.76,11.76,0,0,0,2.38.36q1.45,0.1,2.78.1a8.19,8.19,0,0,0,4.4-1.09,3.73,3.73,0,0,0,1.75-3.41,3.4,3.4,0,0,0-1.46-3.11,8.42,8.42,0,0,0-4.44-.93H346.4v8.07Z"/><path class="cls-1" d="M408.35,469.67a19.93,19.93,0,0,1-1.26,7.31,14.82,14.82,0,0,1-3.54,5.39,15.06,15.06,0,0,1-5.46,3.31,21.13,21.13,0,0,1-7.08,1.12,20,20,0,0,1-7.08-1.19,15.58,15.58,0,0,1-5.46-3.41,15.2,15.2,0,0,1-3.54-5.39,19.29,19.29,0,0,1-1.26-7.15,19.09,19.09,0,0,1,1.26-7.08,15.22,15.22,0,0,1,3.54-5.39,15.6,15.6,0,0,1,5.46-3.41,20,20,0,0,1,7.08-1.19,19.58,19.58,0,0,1,7.08,1.22,16,16,0,0,1,5.46,3.44,15.22,15.22,0,0,1,3.54,5.39A18.91,18.91,0,0,1,408.35,469.67Zm-23.16,0a10.46,10.46,0,0,0,1.56,6.19,5,5,0,0,0,4.34,2.15,4.85,4.85,0,0,0,4.27-2.18,10.85,10.85,0,0,0,1.49-6.16,10.51,10.51,0,0,0-1.52-6.12,5.38,5.38,0,0,0-8.6,0A10.49,10.49,0,0,0,385.18,469.67Z"/><path class="cls-1" d="M411.72,458.81a8.08,8.08,0,0,1,2.08-4.1,5.2,5.2,0,0,1,3.87-1.59,4.92,4.92,0,0,1,3.38,1.06,21.11,21.11,0,0,1,2.65,3l4.24,5.56,7.08-9.6a11,11,0,0,1,5.76,1.29,3.92,3.92,0,0,1,2.12,3.48,4.94,4.94,0,0,1-.23,1.56,6.55,6.55,0,0,1-.7,1.42q-0.46.73-1.19,1.65l-1.72,2.18-4.37,4.9,8.67,11.45a6.15,6.15,0,0,1-2,4,5.81,5.81,0,0,1-4,1.46,5.88,5.88,0,0,1-4-1.46,21.29,21.29,0,0,1-2.88-3.38l-3.57-5.1-6.75,9.73c-0.22,0-.46,0-0.73,0l-0.66,0a8.12,8.12,0,0,1-5.13-1.39,4.23,4.23,0,0,1-1.75-3.44,5.22,5.22,0,0,1,.76-2.81,28.2,28.2,0,0,1,2.61-3.34l5.29-6.16Z"/><path d="M431.34,326.81L252.54,430a7.2,7.2,0,0,1-7.2,0L66.54,326.81a7.2,7.2,0,0,1-3.6-6.24V114.11a7.2,7.2,0,0,1,3.6-6.24L245.34,4.64a7.2,7.2,0,0,1,7.2,0l178.8,103.23a7.2,7.2,0,0,1,3.6,6.24V320.58A7.2,7.2,0,0,1,431.34,326.81Z"/><path d="M248.94,429.56a32,32,0,0,1-16-4.27L76.84,335.16a32,32,0,0,1-16-27.68V127.21a32.06,32.06,0,0,1,16-27.68L233,9.39a32.07,32.07,0,0,1,32,0L421,99.53a32.06,32.06,0,0,1,16,27.68V307.48a32,32,0,0,1-16,27.68L264.92,425.29A32,32,0,0,1,248.94,429.56Zm0-420.28A27.81,27.81,0,0,0,235,13L78.92,103.12A27.91,27.91,0,0,0,65,127.21V307.48a27.89,27.89,0,0,0,13.9,24.09L235,421.7a27.92,27.92,0,0,0,27.82,0L419,331.57a27.89,27.89,0,0,0,13.9-24.09V127.21A27.91,27.91,0,0,0,419,103.12L262.85,13A27.81,27.81,0,0,0,248.94,9.27Z"/><path class="cls-2" d="M366.63,72.32H334.39a11.46,11.46,0,0,1-11.46-11.46V51.92A11.46,11.46,0,0,0,317.21,42L254.67,5.87a11.46,11.46,0,0,0-11.46,0L80.13,100a11.46,11.46,0,0,0,0,19.85L243.21,214a11.46,11.46,0,0,0,11.46,0l163.08-94.13a11.46,11.46,0,0,0,0-19.85L372.36,73.86A11.46,11.46,0,0,0,366.63,72.32Zm-123.42,67-33.69-19.45a11.46,11.46,0,0,1,0-19.85l33.69-19.45a11.46,11.46,0,0,1,11.46,0l14.18,8.19a5.21,5.21,0,0,1,2.61,4.51h0a5.21,5.21,0,0,0,5.21,5.21h6a11.46,11.46,0,0,1,5.73,1.53h0a11.46,11.46,0,0,1,0,19.85l-33.69,19.44A11.46,11.46,0,0,1,243.21,139.32Z"/><path d="M248.94,217.62a13.5,13.5,0,0,1-6.76-1.81L79.09,121.68a13.53,13.53,0,0,1,0-23.44L242.17,4.08a13.58,13.58,0,0,1,13.54,0L318.24,40.2A13.57,13.57,0,0,1,325,51.92v8.95a9.39,9.39,0,0,0,9.38,9.38h32.24a13.55,13.55,0,0,1,6.76,1.81l45.38,26.18a13.53,13.53,0,0,1,0,23.44L255.7,215.81A13.5,13.5,0,0,1,248.94,217.62Zm0-211.2a9.38,9.38,0,0,0-4.69,1.25L81.17,101.83a9.39,9.39,0,0,0,0,16.26l163.08,94.13a9.41,9.41,0,0,0,9.38,0l163.08-94.13a9.39,9.39,0,0,0,0-16.26L371.32,75.65a9.39,9.39,0,0,0-4.69-1.26H334.39a13.55,13.55,0,0,1-13.53-13.53V51.92a9.4,9.4,0,0,0-4.69-8.12L253.63,7.67A9.38,9.38,0,0,0,248.94,6.42Zm0,136.5a13.5,13.5,0,0,1-6.76-1.81l-33.69-19.45a13.53,13.53,0,0,1,0-23.44l33.69-19.45a13.55,13.55,0,0,1,13.54,0L269.89,87a7.3,7.3,0,0,1,3.64,6.31,3.14,3.14,0,0,0,3.14,3.14h6a13.53,13.53,0,0,1,6.76,25.25L255.7,141.11A13.5,13.5,0,0,1,248.94,142.92Zm-4.69-5.4a9.41,9.41,0,0,0,9.38,0l33.69-19.44a9.39,9.39,0,0,0-4.69-17.51h-6a7.3,7.3,0,0,1-7.29-7.29,3.15,3.15,0,0,0-1.57-2.72l-14.18-8.19a9.42,9.42,0,0,0-9.39,0l-33.69,19.45a9.38,9.38,0,0,0,0,16.26Z"/><path class="cls-1" d="M417.86,119.83L254.63,214a11.37,11.37,0,0,1-5.69,1.52v74.65a11.36,11.36,0,0,0,6.53-1.9L341,231.19a11.39,11.39,0,0,1,17.71,9.47V348.28a11.39,11.39,0,0,0,17,9.92L429.15,328a11.39,11.39,0,0,0,5.79-9.92V129.69A11.39,11.39,0,0,0,417.86,119.83Z"/><path class="cls-2" d="M248.94,215.57a11.37,11.37,0,0,1-5.69-1.52L80,119.83a11.39,11.39,0,0,0-17.08,9.86V318.15A11.39,11.39,0,0,0,68.63,328l51.8,29.92a11.39,11.39,0,0,0,17.08-9.86V238.74a11.39,11.39,0,0,1,17.75-9.44l87.52,59a11.37,11.37,0,0,0,6.16,1.93V215.57Z"/><path d="M370.07,361.76a13.51,13.51,0,0,1-13.46-13.48V240.66a9.31,9.31,0,0,0-14.48-7.74L256.62,290a13.42,13.42,0,0,1-15,0L154.1,231a9.31,9.31,0,0,0-14.52,7.72V348.07a13.46,13.46,0,0,1-20.19,11.66L67.6,329.81a13.49,13.49,0,0,1-6.73-11.66V129.69A13.46,13.46,0,0,1,81.06,118l163.22,94.21a9.35,9.35,0,0,0,9.31,0L416.82,118A13.46,13.46,0,0,1,437,129.69V318.08a13.5,13.5,0,0,1-6.84,11.72L376.7,360A13.43,13.43,0,0,1,370.07,361.76ZM347.28,227.17a13.49,13.49,0,0,1,6.37,1.62,13.27,13.27,0,0,1,7.12,11.87V348.28a9.31,9.31,0,0,0,13.89,8.11l53.47-30.2a9.33,9.33,0,0,0,4.73-8.11V129.69a9.32,9.32,0,0,0-14-8.06L255.67,215.84a13.49,13.49,0,0,1-13.46,0L79,121.62a9.31,9.31,0,0,0-14,8.06V318.15a9.34,9.34,0,0,0,4.66,8.06l51.8,29.92a9.31,9.31,0,0,0,14-8.06V238.74a13.46,13.46,0,0,1,21-11.17l87.52,59a9.29,9.29,0,0,0,10.38,0l85.51-57.12A13.37,13.37,0,0,1,347.28,227.17Z"/></svg>